<svg width="24" height="24" viewBox="0 0 24 24" fill="none" xmlns="http://www.w3.org/2000/svg">
<path d="M5.50488 2.49408C5.7275 2.27033 6.08793 2.27035 6.31055 2.49408L9.07422 5.27142H9.0752C9.65826 5.86196 10.0831 6.59345 10.2998 7.39154L10.585 8.45013L10.6592 8.68939C10.85 9.24066 11.1693 9.73627 11.5898 10.1347V10.1357L12.2207 10.7343L13.373 9.56244V9.56146C13.7547 9.17749 13.9911 8.66517 14.0459 8.12787C14.1874 6.69034 14.8098 5.31521 15.7949 4.25482C16.4785 3.51704 17.334 2.93677 18.2666 2.57904C19.3149 2.17546 20.4753 2.39525 21.2881 3.16107C22.1001 3.92633 22.3975 5.07204 22.0684 6.15326C21.7742 7.11401 21.2588 8.00928 20.5752 8.74701C19.5899 9.80761 18.2643 10.526 16.8496 10.7646L16.7158 10.787C16.2425 10.8981 15.8083 11.1576 15.4814 11.5302L14.3857 12.7763L20.4775 18.5663C20.8312 18.9014 21.0316 19.355 21.04 19.8447C21.0484 20.3353 20.8598 20.7981 20.5146 21.1454C20.1784 21.4836 19.7459 21.6738 19.25 21.6738C18.7529 21.6737 18.2933 21.4712 17.9492 21.1083L17.9482 21.1074L12.3271 15.1171L7.11914 21.0488C6.79089 21.425 6.33309 21.6486 5.83789 21.6738H5.74609C5.29191 21.6737 4.86514 21.5052 4.53516 21.1943C3.81231 20.5132 3.78598 19.3656 4.4668 18.6347L4.4707 18.6298L4.49707 18.6044L10.1699 12.8222L9.56055 12.1728C9.10413 11.6853 8.52558 11.3359 7.8877 11.163H7.88672L6.83887 10.8759H6.83789C6.14122 10.682 5.49438 10.3326 4.95215 9.85443L4.72656 9.64252L1.9668 6.86127C1.74479 6.63789 1.74484 6.27699 1.9668 6.05365C2.18941 5.83004 2.54988 5.82999 2.77246 6.05365V6.05463L5.53223 8.83392L5.7041 8.99506C6.11772 9.35822 6.60876 9.62525 7.13672 9.77045L8.18555 10.0576C9.03662 10.2905 9.55195 10.7326 10.1348 11.3515L10.9521 12.0253L11.4248 11.5449L10.8105 10.9619V10.9609C10.1724 10.3612 9.71525 9.59537 9.4873 8.74408L9.20215 7.68939C9.03715 7.08599 8.71415 6.527 8.26758 6.07416V6.07318L5.50488 3.3017C5.28284 3.07832 5.28291 2.71744 5.50488 2.49408ZM19.3428 3.52142C19.1234 3.52148 18.9029 3.56172 18.6807 3.64642L18.6797 3.64545C17.9084 3.94394 17.2017 4.42356 16.6377 5.03412C15.8734 5.86063 15.3726 6.91451 15.2158 8.02045L15.1895 8.2431C15.1071 9.04029 14.7575 9.79553 14.1914 10.3691L5.31738 19.4033L5.31836 19.4042C5.07044 19.6696 5.05551 20.025 5.22559 20.2695L5.30957 20.3671L5.31055 20.3681C5.43183 20.4846 5.59614 20.5446 5.77344 20.5361H5.77441C5.96003 20.5275 6.13108 20.4445 6.25488 20.3027L6.25586 20.3017L13.1465 12.4531C13.1476 12.4512 13.1482 12.449 13.1494 12.4472C13.1617 12.4286 13.1763 12.4139 13.1904 12.4023L14.6172 10.7783L14.624 10.7714C15.1544 10.1683 15.8797 9.76596 16.6641 9.63177H16.665C17.8323 9.43413 18.9264 8.8412 19.7451 7.9599C20.3134 7.34855 20.7393 6.60738 20.9824 5.81244L21.0156 5.68646C21.1635 5.05359 20.9807 4.43169 20.5137 3.9931V3.99213C20.1839 3.68043 19.7731 3.52142 19.3428 3.52142ZM13.0811 14.2646L18.7734 20.3271C19.0184 20.5877 19.4514 20.5929 19.7012 20.3417C19.8239 20.2183 19.8908 20.0513 19.8916 19.871L19.876 19.7411C19.8481 19.6141 19.7825 19.4975 19.6855 19.4042L19.335 19.0673H19.334L13.6279 13.6435L13.0811 14.2646ZM13.1416 12.4638C13.1404 12.4658 13.1394 12.4674 13.1387 12.4687L13.1377 12.4706L13.1367 12.4716V12.4726C13.1383 12.4693 13.1398 12.4661 13.1416 12.4628V12.4638ZM3.74121 4.28412C3.96389 4.06005 4.32419 4.06007 4.54688 4.28412L7.4707 7.22455C7.69247 7.44786 7.69244 7.80884 7.4707 8.03217C7.44663 8.05638 7.41523 8.07661 7.39551 8.08881C7.37079 8.10408 7.34068 8.12054 7.30859 8.13568C7.25158 8.16255 7.1592 8.19914 7.06543 8.19916C6.92032 8.19916 6.77484 8.14755 6.66016 8.03217L6.32129 7.69135H6.3252L3.74121 5.09174C3.51922 4.86842 3.51942 4.50749 3.74121 4.28412Z" fill="#1B3C7E" stroke="#1B3C7E" stroke-width="0.4"/>
</svg>
